<svg width="20" height="21" viewBox="0 0 20 21" fill="none" xmlns="http://www.w3.org/2000/svg">
<path d="M3.09003 8.23937C3.09003 7.30604 3.27003 6.41271 3.63003 5.55937C3.96336 4.74604 4.45669 4.00604 5.11003 3.33937C5.73669 2.71271 6.47003 2.22271 7.31003 1.86937C8.15003 1.51604 9.04669 1.33937 10 1.33937C10.9534 1.33937 11.8467 1.51604 12.68 1.86937C13.5134 2.22271 14.25 2.71937 14.89 3.35937C15.53 3.99937 16.0234 4.73271 16.37 5.55937C16.73 6.41271 16.91 7.30604 16.91 8.23937C16.91 9.17271 16.73 10.066 16.37 10.9194C16.13 11.4527 15.89 11.886 15.65 12.2194L11.07 19.1594C10.7767 19.626 10.4234 19.8594 10.01 19.8594C9.59669 19.8594 9.23003 19.626 8.91003 19.1594L4.35003 12.2194C4.05669 11.806 3.81669 11.3727 3.63003 10.9194C3.27003 10.066 3.09003 9.17271 3.09003 8.23937ZM7.43003 8.23937C7.43003 8.94604 7.68003 9.55271 8.18003 10.0594C8.68003 10.566 9.28669 10.8194 10 10.8194C10.7134 10.8194 11.32 10.5694 11.82 10.0694C12.32 9.56937 12.57 8.96271 12.57 8.24937C12.57 7.53604 12.32 6.92604 11.82 6.41937C11.32 5.91271 10.7134 5.65937 10 5.65937C9.28669 5.65937 8.68003 5.91271 8.18003 6.41937C7.68003 6.92604 7.43003 7.53271 7.43003 8.23937Z" fill="#F7CE00"/>
</svg>
