<svg width="40" height="41" viewBox="0 0 40 41" fill="none" xmlns="http://www.w3.org/2000/svg">
<path d="M19.841 12.7575C18.0988 12.7575 16.6816 11.3177 16.6816 9.54697C16.6816 7.77627 18.0988 6.33643 19.841 6.33643C21.5828 6.33643 23 7.77666 23 9.54697C23 11.3173 21.5828 12.7575 19.841 12.7575ZM19.841 8.33643C19.1723 8.30713 18.6066 8.82549 18.5777 9.49424C18.5484 10.1626 19.0668 10.7282 19.7352 10.7575C20.4039 10.7868 20.9695 10.2685 20.9988 9.6001C20.9996 9.58252 21 9.56494 21 9.54736C21.0133 8.89307 20.4949 8.35166 19.841 8.33643Z" fill="#F7CE00"/>
<path d="M12.7953 12.7575C11.0535 12.7575 9.63632 11.3177 9.63632 9.54697C9.63632 7.77627 11.0535 6.33643 12.7953 6.33643C14.5371 6.33643 15.9547 7.77627 15.9547 9.54697C15.9547 11.3177 14.5375 12.7575 12.7953 12.7575ZM12.7953 8.33643C12.1269 8.30713 11.5613 8.82549 11.532 9.49424C11.5031 10.1626 12.0215 10.7282 12.6898 10.7575C13.3586 10.7868 13.9242 10.2685 13.9535 9.6001C13.9543 9.58252 13.9547 9.56494 13.9547 9.54736C13.968 8.89307 13.4496 8.35166 12.7953 8.33643Z" fill="#F7CE00"/>
<path d="M6.18163 12.7575C4.43983 12.7575 3.02264 11.3177 3.02264 9.54697C3.02264 7.77627 4.43983 6.33643 6.18163 6.33643C7.92382 6.33643 9.341 7.77627 9.341 9.54697C9.341 11.3177 7.92382 12.7575 6.18163 12.7575ZM6.18163 8.33643C5.51327 8.30752 4.94764 8.82588 4.91874 9.49424C4.88944 10.163 5.4078 10.7282 6.07655 10.7575C6.74491 10.7868 7.31053 10.2685 7.33983 9.6001C7.34061 9.58252 7.341 9.56494 7.341 9.54736C7.35468 8.89307 6.83593 8.35127 6.18163 8.33643Z" fill="#F7CE00"/>
<path d="M40 7.80005C40 5.03872 37.7613 2.80005 35 2.80005H5C2.23867 2.80005 0 5.03872 0 7.80005V33.4001C0 36.1614 2.23867 38.4001 5 38.4001H35C37.7613 38.4001 40 36.1614 40 33.4001V7.80005ZM5 4.80005H35C36.6559 4.80161 37.998 6.14341 38 7.79927V15.2001H2V7.79927C2.00195 6.14341 3.34414 4.80161 5 4.80005ZM35 36.4001H5C3.34414 36.3985 2.00195 35.0567 2 33.4008V17.2001H38V33.4008C37.998 35.0567 36.6559 36.3985 35 36.4001Z" fill="#F7CE00"/>
</svg>
