<svg width="40" height="41" viewBox="0 0 40 41" fill="none" xmlns="http://www.w3.org/2000/svg">
<path d="M32.95 9.70011H24V7.68019C24.0101 7.15011 23.5801 6.71027 23.05 6.70011C23.0398 6.70011 23.0301 6.70011 23.0199 6.70011H16.9C16.3601 6.69035 15.9101 7.12043 15.9 7.67043V7.68019V9.70011H6.96991C6.41991 9.70011 5.96991 10.1501 5.96991 10.7001C5.96991 11.2501 6.41991 11.7001 6.96991 11.7001H13.0301C10.6101 13.8001 9.09999 16.7802 9.09999 20.0704V26.8001H7.28007C6.73983 26.8001 6.29999 27.2403 6.29999 27.7802V27.8001V33.9204C6.28983 34.4501 6.71991 34.8903 7.24999 34.9001H7.28007H13.4C13.9398 34.9103 14.3898 34.4704 14.4 33.9302V33.9204V27.8001C14.4 27.2501 13.95 26.8001 13.4 26.8001H11.1V20.0704C11.1101 16.7603 12.9601 13.7403 15.9 12.2204V13.8001C15.9 14.3501 16.3398 14.8001 16.8898 14.8001H23.0199C23.5601 14.8001 24 14.3603 24 13.8204C24 13.8103 24 13.8103 24 13.8001V12.2204C26.9398 13.7302 28.8 16.7603 28.8 20.0704V26.8001H26.5199C25.9601 26.8001 25.5101 27.2403 25.5 27.8001V33.9204C25.5101 34.4704 25.9699 34.9103 26.5199 34.9001H32.6398C33.1601 34.9103 33.5898 34.4903 33.6 33.9603C33.6 33.9501 33.6 33.9302 33.6 33.9204V27.8001C33.6199 27.2704 33.2 26.8204 32.6699 26.8001C32.6601 26.8001 32.65 26.8001 32.6398 26.8001H30.8V20.0704C30.8 16.7704 29.3199 13.8001 26.9 11.7001H32.95C33.5 11.7001 33.95 11.2501 33.95 10.7001C33.95 10.1501 33.5 9.70011 32.95 9.70011ZM12.4 32.9001H8.29999V28.8001H12.4V32.9001ZM31.6 32.9001H27.5V28.8001H31.6V32.9001ZM17.9 12.8001V8.70011H22V10.3603V11.0501V12.8001H17.9Z" fill="#F7CE00"/>
<path d="M3.91016 14.7301C1.76016 14.7301 0 12.9402 0 10.7402C0 8.54023 1.75 6.75 3.91016 6.75C6.06992 6.75 7.81992 8.54023 7.81992 10.7402C7.81992 12.9402 6.06016 14.7301 3.91016 14.7301ZM3.91016 8.75C2.86016 8.75 2 9.64023 2 10.7402C2 11.8402 2.86016 12.7301 3.91016 12.7301C4.96016 12.7301 5.81992 11.8402 5.81992 10.7402C5.81992 9.64023 4.96016 8.75 3.91016 8.75Z" fill="#F7CE00"/>
<path d="M36.0102 14.65C33.8102 14.65 32.0199 12.9 32.0199 10.7402C32.0199 8.58008 33.8102 6.83008 36.0102 6.83008C38.2102 6.83008 40 8.58008 40 10.7402C40 12.9 38.2102 14.65 36.0102 14.65ZM36.0102 8.83008C34.9102 8.83008 34.0199 9.69023 34.0199 10.7402C34.0199 11.7902 34.9102 12.65 36.0102 12.65C37.1102 12.65 38 11.7902 38 10.7402C38 9.69023 37.1102 8.83008 36.0102 8.83008Z" fill="#F7CE00"/>
</svg>
