<svg width="41" height="41" viewBox="0 0 41 41" fill="none" xmlns="http://www.w3.org/2000/svg">
<path d="M32.7514 39.6467C32.5969 39.6467 32.4446 39.6091 32.3079 39.5372L20.98 33.5815L9.65213 39.5372C9.3311 39.7059 8.94155 39.678 8.64809 39.4646C8.35425 39.2512 8.20751 38.8896 8.26859 38.5321L10.4323 25.9186L1.26786 16.9854C1.00791 16.7321 0.91443 16.3534 1.02653 16.0081C1.13863 15.6629 1.43693 15.4115 1.79632 15.3594L14.4612 13.5193L20.1249 2.04243C20.2858 1.71693 20.6173 1.51099 20.98 1.51099C21.3427 1.51099 21.6742 1.71693 21.8347 2.04243L27.4988 13.5189L40.1637 15.3586C40.5227 15.4112 40.821 15.6625 40.9335 16.0078C41.0456 16.3526 40.9521 16.7314 40.6922 16.985L31.5277 25.9182L33.691 38.5317C33.7387 38.8084 33.6616 39.0925 33.4803 39.3074C33.2993 39.5223 33.0326 39.6463 32.7514 39.6463V39.6467ZM20.98 31.5507C21.1346 31.5507 21.2869 31.5883 21.4236 31.6602L31.4852 36.95L29.5635 25.7465C29.5106 25.4374 29.6131 25.122 29.838 24.9026L37.978 16.9682L26.729 15.3337C26.4184 15.2886 26.1499 15.0935 26.011 14.8119L20.98 4.61845L15.949 14.8119C15.8101 15.0935 15.5419 15.2886 15.2313 15.3337L3.98205 16.9682L12.122 24.9026C12.347 25.122 12.4494 25.4374 12.3961 25.7465L10.4748 36.9504L20.5365 31.6609C20.6731 31.5887 20.8255 31.5511 20.98 31.5507Z" fill="#F7CE00"/>
</svg>
