<svg width="40" height="41" viewBox="0 0 40 41" fill="none" xmlns="http://www.w3.org/2000/svg">
<path d="M32.9842 22.7088H20.8132V13.62C20.8132 13.1652 20.4447 12.7966 19.9899 12.7966C19.5354 12.7966 19.1665 13.1652 19.1665 13.62V22.7088H6.99583C5.60251 22.71 4.47358 23.8393 4.47197 25.2326V27.1743C4.47197 27.6291 4.84056 27.9977 5.29535 27.9977C5.74982 27.9977 6.11874 27.6291 6.11874 27.1743V25.2326C6.11906 24.7482 6.51145 24.3558 6.99583 24.3555H19.1665V27.5638C19.1665 28.0186 19.5354 28.3872 19.9899 28.3872C20.4447 28.3872 20.8132 28.0186 20.8132 27.5638V24.3555H32.9842C33.4683 24.3558 33.861 24.7482 33.8613 25.2326V27.1743C33.8613 27.6291 34.2299 27.9977 34.6847 27.9977C35.1395 27.9977 35.5081 27.6291 35.5081 27.1743V25.2326C35.5065 23.8393 34.3775 22.71 32.9842 22.7088Z" fill="#F7CE00"/>
<path d="M31.5684 14.4279H8.41134C7.04794 14.4263 5.9428 13.3212 5.94119 11.9578V6.59418C5.9428 5.23077 7.04794 4.12563 8.41134 4.12402H31.5684C32.9321 4.12563 34.0372 5.23077 34.0385 6.59418V11.9578C34.0372 13.3212 32.9321 14.4263 31.5684 14.4279ZM8.41134 5.77079C7.95688 5.77143 7.5886 6.13971 7.58796 6.59418V11.9578C7.5886 12.4122 7.95688 12.7805 8.41134 12.7811H31.5684C32.0232 12.7805 32.3914 12.4122 32.3918 11.9578V6.59418C32.3914 6.13971 32.0232 5.77143 31.5684 5.77079H8.41134Z" fill="#F7CE00"/>
<path d="M22.7517 37.0594H17.2283C15.8649 37.0581 14.7598 35.953 14.7582 34.5893V29.226C14.7598 27.8626 15.8649 26.7575 17.2283 26.7559H22.7517C24.1151 26.7575 25.2203 27.8626 25.2219 29.226V34.5893C25.2203 35.953 24.1151 37.0581 22.7517 37.0594ZM17.2283 28.4026C16.7738 28.4033 16.4056 28.7715 16.4049 29.226V34.5893C16.4056 35.0441 16.7738 35.4123 17.2283 35.4126H22.7517C23.2062 35.4123 23.5745 35.0441 23.5751 34.5893V29.226C23.5745 28.7715 23.2062 28.4033 22.7517 28.4026H17.2283Z" fill="#F7CE00"/>
<path d="M37.5199 37.0594H31.9965C30.6331 37.0581 29.5279 35.953 29.5263 34.5893V29.226C29.5279 27.8626 30.6331 26.7575 31.9965 26.7559H37.5199C38.8833 26.7575 39.9884 27.8626 39.9901 29.226V34.5893C39.9884 35.953 38.8833 37.0581 37.5199 37.0594ZM31.9965 28.4026C31.542 28.4033 31.1737 28.7715 31.1731 29.226V34.5893C31.1737 35.0437 31.542 35.4123 31.9965 35.4126H37.5199C37.9744 35.4123 38.3426 35.0441 38.3433 34.5893V29.226C38.3426 28.7715 37.9744 28.4033 37.5199 28.4026H31.9965Z" fill="#F7CE00"/>
<path d="M7.98325 37.0594H2.46014C1.09641 37.0581 -0.0084016 35.953 -0.0100098 34.5893V29.226C-0.0084016 27.8626 1.09641 26.7575 2.46014 26.7559H7.98325C9.34698 26.7575 10.4521 27.8626 10.4534 29.226V34.5893C10.4521 35.953 9.34698 37.0581 7.98325 37.0594ZM2.46014 28.4026C2.00567 28.4033 1.6374 28.7715 1.63676 29.226V34.5893C1.6374 35.0441 2.00567 35.4123 2.46014 35.4126H7.98325C8.43804 35.4123 8.80631 35.0441 8.80663 34.5893V29.226C8.80631 28.7715 8.43804 28.4033 7.98325 28.4026H2.46014Z" fill="#F7CE00"/>
</svg>
