<svg width="20" height="21" viewBox="0 0 20 21" fill="none" xmlns="http://www.w3.org/2000/svg">
<path d="M11.22 11.8997C13.38 9.73965 14.1667 8.36632 13.58 7.77965L13.42 7.61965C13.02 7.21965 12.7467 6.89965 12.6 6.65965C12.4534 6.41965 12.4267 6.05965 12.52 5.57965C12.6134 5.09965 12.94 4.51299 13.5 3.81965C13.7667 3.49965 14.0134 3.23965 14.24 3.03965C14.4667 2.83965 14.7 2.73299 14.94 2.71965C15.18 2.70632 15.38 2.69965 15.54 2.69965C15.7 2.69965 15.8934 2.78632 16.12 2.95965L16.6 3.31965C16.6934 3.38632 16.8667 3.55299 17.12 3.81965L17.54 4.25965C18.18 4.89965 18.14 6.19299 17.42 8.13965C16.7 10.0863 15.34 12.053 13.34 14.0397C11.34 16.0263 9.37335 17.3863 7.44002 18.1197C5.50669 18.853 4.22002 18.8997 3.58002 18.2597L3.12002 17.8197C2.84002 17.553 2.67335 17.3863 2.62002 17.3197L2.26002 16.8397C2.07335 16.5863 1.98669 16.3797 2.00002 16.2197L2.04002 15.6197C2.05335 15.3797 2.15335 15.1463 2.34002 14.9197C2.52669 14.693 2.78002 14.4463 3.10002 14.1797C3.66002 13.7263 4.12669 13.413 4.50002 13.2397C4.87335 13.0663 5.23335 13.053 5.58002 13.1997C5.92669 13.3463 6.16002 13.4663 6.28002 13.5597C6.40002 13.653 6.66002 13.8997 7.06002 14.2997C7.64669 14.8863 9.03335 14.0863 11.22 11.8997Z" fill="#F7CE00"/>
</svg>
