<svg width="20" height="21" viewBox="0 0 20 21" fill="none" xmlns="http://www.w3.org/2000/svg">
<path d="M15 13.0996C15.8267 13.0996 16.5334 13.3863 17.12 13.9596C17.7067 14.5329 18 15.2396 18 16.0796C18 16.9196 17.7067 17.6329 17.12 18.2196C16.5334 18.8063 15.8267 19.0996 15 19.0996C14.1734 19.0996 13.4667 18.8063 12.88 18.2196C12.2934 17.6329 12 16.9263 12 16.0996C12 16.0196 12.0067 15.9263 12.02 15.8196C12.0334 15.7129 12.04 15.6329 12.04 15.5796L6.84003 12.4596C6.28003 12.8863 5.6667 13.0996 5.00003 13.0996C4.17336 13.0996 3.4667 12.8063 2.88003 12.2196C2.29336 11.6329 2.00003 10.9263 2.00003 10.0996C2.00003 9.27294 2.29336 8.56628 2.88003 7.97961C3.4667 7.39294 4.17336 7.09961 5.00003 7.09961C5.72003 7.09961 6.33336 7.29961 6.84003 7.69961L12.04 4.57961C12.04 4.52628 12.0334 4.44628 12.02 4.33961C12.0067 4.23294 12 4.15294 12 4.09961C12 3.27294 12.2934 2.56628 12.88 1.97961C13.4667 1.39294 14.1734 1.09961 15 1.09961C15.8267 1.09961 16.5334 1.38628 17.12 1.95961C17.7067 2.53294 18 3.23961 18 4.07961C18 4.91961 17.7067 5.63294 17.12 6.21961C16.5334 6.80628 15.8267 7.09961 15 7.09961C14.3067 7.09961 13.7067 6.88628 13.2 6.45961L7.96003 9.57961C7.9867 9.68628 8.00003 9.85294 8.00003 10.0796C8.00003 10.3063 7.9867 10.4729 7.96003 10.5796L13.2 13.6996C13.68 13.2996 14.28 13.0996 15 13.0996Z" fill="#F7CE00"/>
</svg>
